<mxfile host="app.diagrams.net" modified="2020-12-14T11:53:50.530Z" agent="5.0 (Windows NT 6.1; Win64; x64) AppleWebKit/537.36 (KHTML, like Gecko) Chrome/87.0.4280.88 Safari/537.36" etag="WdITj3FzLOV6O0BBS4Da" version="13.10.9" type="github">
  <diagram id="GzK0z3Ax3Vn6kxYni37R" name="Page-1">
    <mxGraphModel dx="1422" dy="794" grid="1" gridSize="10" guides="1" tooltips="1" connect="1" arrows="1" fold="1" page="1" pageScale="1" pageWidth="1200" pageHeight="1600" math="0" shadow="0">
      <root>
        <mxCell id="0" />
        <mxCell id="1" parent="0" />
        <mxCell id="jb1K5Bx4n4SNYEQkW07A-1" value="Methodological&lt;br&gt;Framework" style="rounded=0;whiteSpace=wrap;html=1;fillColor=#f5f5f5;strokeColor=#666666;gradientColor=#b3b3b3;" parent="1" vertex="1">
          <mxGeometry x="540" y="10" width="120" height="60" as="geometry" />
        </mxCell>
        <mxCell id="jb1K5Bx4n4SNYEQkW07A-3" value="" style="endArrow=none;html=1;" parent="1" edge="1">
          <mxGeometry width="50" height="50" relative="1" as="geometry">
            <mxPoint x="600" y="100" as="sourcePoint" />
            <mxPoint x="600" y="70" as="targetPoint" />
          </mxGeometry>
        </mxCell>
        <mxCell id="jb1K5Bx4n4SNYEQkW07A-4" value="" style="endArrow=none;html=1;" parent="1" edge="1">
          <mxGeometry width="50" height="50" relative="1" as="geometry">
            <mxPoint x="120" y="100" as="sourcePoint" />
            <mxPoint x="1120" y="100" as="targetPoint" />
          </mxGeometry>
        </mxCell>
        <mxCell id="jb1K5Bx4n4SNYEQkW07A-5" value="" style="endArrow=none;html=1;" parent="1" edge="1">
          <mxGeometry width="50" height="50" relative="1" as="geometry">
            <mxPoint x="1120" y="140" as="sourcePoint" />
            <mxPoint x="1120" y="100" as="targetPoint" />
          </mxGeometry>
        </mxCell>
        <mxCell id="jb1K5Bx4n4SNYEQkW07A-6" value="" style="endArrow=none;html=1;" parent="1" edge="1">
          <mxGeometry width="50" height="50" relative="1" as="geometry">
            <mxPoint x="120" y="140" as="sourcePoint" />
            <mxPoint x="120" y="100" as="targetPoint" />
          </mxGeometry>
        </mxCell>
        <mxCell id="jb1K5Bx4n4SNYEQkW07A-7" value="" style="endArrow=none;html=1;" parent="1" edge="1">
          <mxGeometry width="50" height="50" relative="1" as="geometry">
            <mxPoint x="320" y="140" as="sourcePoint" />
            <mxPoint x="320" y="100" as="targetPoint" />
          </mxGeometry>
        </mxCell>
        <mxCell id="jb1K5Bx4n4SNYEQkW07A-8" value="" style="endArrow=none;html=1;" parent="1" edge="1">
          <mxGeometry width="50" height="50" relative="1" as="geometry">
            <mxPoint x="920" y="140" as="sourcePoint" />
            <mxPoint x="920" y="100" as="targetPoint" />
          </mxGeometry>
        </mxCell>
        <mxCell id="jb1K5Bx4n4SNYEQkW07A-9" value="" style="endArrow=none;html=1;" parent="1" edge="1">
          <mxGeometry width="50" height="50" relative="1" as="geometry">
            <mxPoint x="760" y="140" as="sourcePoint" />
            <mxPoint x="760" y="100" as="targetPoint" />
          </mxGeometry>
        </mxCell>
        <mxCell id="jb1K5Bx4n4SNYEQkW07A-10" value="" style="endArrow=none;html=1;" parent="1" edge="1">
          <mxGeometry width="50" height="50" relative="1" as="geometry">
            <mxPoint x="600" y="140" as="sourcePoint" />
            <mxPoint x="600" y="100" as="targetPoint" />
            <Array as="points">
              <mxPoint x="600" y="120" />
            </Array>
          </mxGeometry>
        </mxCell>
        <mxCell id="jb1K5Bx4n4SNYEQkW07A-11" value="Research Goal" style="rounded=0;whiteSpace=wrap;html=1;fillColor=#eeeeee;strokeColor=#36393d;" parent="1" vertex="1">
          <mxGeometry x="80" y="140" width="80" height="40" as="geometry" />
        </mxCell>
        <mxCell id="jb1K5Bx4n4SNYEQkW07A-12" value="Research Logic" style="rounded=0;whiteSpace=wrap;html=1;fillColor=#eeeeee;strokeColor=#36393d;" parent="1" vertex="1">
          <mxGeometry x="270" y="140" width="90" height="40" as="geometry" />
        </mxCell>
        <mxCell id="jb1K5Bx4n4SNYEQkW07A-13" value="Research&lt;br&gt;Process" style="rounded=0;whiteSpace=wrap;html=1;fillColor=#eeeeee;strokeColor=#36393d;" parent="1" vertex="1">
          <mxGeometry x="545" y="140" width="110" height="40" as="geometry" />
        </mxCell>
        <mxCell id="jb1K5Bx4n4SNYEQkW07A-14" value="Research&lt;br&gt;Results" style="rounded=0;whiteSpace=wrap;html=1;fillColor=#eeeeee;strokeColor=#36393d;" parent="1" vertex="1">
          <mxGeometry x="720" y="140" width="100" height="40" as="geometry" />
        </mxCell>
        <mxCell id="jb1K5Bx4n4SNYEQkW07A-15" value="Technical&lt;br&gt;Procedures" style="rounded=0;whiteSpace=wrap;html=1;fillColor=#eeeeee;strokeColor=#36393d;" parent="1" vertex="1">
          <mxGeometry x="870" y="140" width="100" height="40" as="geometry" />
        </mxCell>
        <mxCell id="jb1K5Bx4n4SNYEQkW07A-16" value="Instruments" style="rounded=0;whiteSpace=wrap;html=1;fillColor=#eeeeee;strokeColor=#36393d;" parent="1" vertex="1">
          <mxGeometry x="1070" y="140" width="110" height="40" as="geometry" />
        </mxCell>
        <mxCell id="jb1K5Bx4n4SNYEQkW07A-18" value="" style="endArrow=none;html=1;" parent="1" edge="1">
          <mxGeometry width="50" height="50" relative="1" as="geometry">
            <mxPoint x="1120" y="190" as="sourcePoint" />
            <mxPoint x="1120" y="180" as="targetPoint" />
          </mxGeometry>
        </mxCell>
        <mxCell id="jb1K5Bx4n4SNYEQkW07A-19" value="" style="endArrow=none;html=1;" parent="1" edge="1">
          <mxGeometry width="50" height="50" relative="1" as="geometry">
            <mxPoint x="920" y="190" as="sourcePoint" />
            <mxPoint x="920" y="180" as="targetPoint" />
          </mxGeometry>
        </mxCell>
        <mxCell id="jb1K5Bx4n4SNYEQkW07A-20" value="" style="endArrow=none;html=1;" parent="1" edge="1">
          <mxGeometry width="50" height="50" relative="1" as="geometry">
            <mxPoint x="760" y="190" as="sourcePoint" />
            <mxPoint x="760" y="180" as="targetPoint" />
          </mxGeometry>
        </mxCell>
        <mxCell id="jb1K5Bx4n4SNYEQkW07A-21" value="" style="endArrow=none;html=1;" parent="1" edge="1">
          <mxGeometry width="50" height="50" relative="1" as="geometry">
            <mxPoint x="600" y="190" as="sourcePoint" />
            <mxPoint x="600" y="180" as="targetPoint" />
          </mxGeometry>
        </mxCell>
        <mxCell id="jb1K5Bx4n4SNYEQkW07A-22" value="" style="endArrow=none;html=1;" parent="1" edge="1">
          <mxGeometry width="50" height="50" relative="1" as="geometry">
            <mxPoint x="320" y="190" as="sourcePoint" />
            <mxPoint x="320" y="180" as="targetPoint" />
          </mxGeometry>
        </mxCell>
        <mxCell id="jb1K5Bx4n4SNYEQkW07A-24" value="" style="endArrow=none;html=1;" parent="1" edge="1">
          <mxGeometry width="50" height="50" relative="1" as="geometry">
            <mxPoint x="170" y="200" as="sourcePoint" />
            <mxPoint x="170" y="190" as="targetPoint" />
          </mxGeometry>
        </mxCell>
        <mxCell id="jb1K5Bx4n4SNYEQkW07A-26" value="" style="endArrow=none;html=1;" parent="1" edge="1">
          <mxGeometry width="50" height="50" relative="1" as="geometry">
            <mxPoint x="70" y="200" as="sourcePoint" />
            <mxPoint x="70" y="190" as="targetPoint" />
          </mxGeometry>
        </mxCell>
        <mxCell id="jb1K5Bx4n4SNYEQkW07A-27" value="" style="endArrow=none;html=1;" parent="1" edge="1">
          <mxGeometry width="50" height="50" relative="1" as="geometry">
            <mxPoint x="70" y="190" as="sourcePoint" />
            <mxPoint x="170" y="190" as="targetPoint" />
          </mxGeometry>
        </mxCell>
        <mxCell id="jb1K5Bx4n4SNYEQkW07A-28" value="Goal Nature" style="rounded=0;whiteSpace=wrap;html=1;" parent="1" vertex="1">
          <mxGeometry x="20" y="200" width="80" height="30" as="geometry" />
        </mxCell>
        <mxCell id="jb1K5Bx4n4SNYEQkW07A-29" value="Articles&lt;br&gt;Nature" style="rounded=0;whiteSpace=wrap;html=1;" parent="1" vertex="1">
          <mxGeometry x="120" y="200" width="110" height="30" as="geometry" />
        </mxCell>
        <mxCell id="jb1K5Bx4n4SNYEQkW07A-30" value="" style="endArrow=none;html=1;" parent="1" edge="1">
          <mxGeometry width="50" height="50" relative="1" as="geometry">
            <mxPoint x="140" y="240" as="sourcePoint" />
            <mxPoint x="250" y="240" as="targetPoint" />
          </mxGeometry>
        </mxCell>
        <mxCell id="jb1K5Bx4n4SNYEQkW07A-32" value="" style="endArrow=none;html=1;" parent="1" edge="1">
          <mxGeometry width="50" height="50" relative="1" as="geometry">
            <mxPoint x="50" y="240" as="sourcePoint" />
            <mxPoint x="50" y="230" as="targetPoint" />
          </mxGeometry>
        </mxCell>
        <mxCell id="jb1K5Bx4n4SNYEQkW07A-34" value="" style="endArrow=none;html=1;" parent="1" edge="1">
          <mxGeometry width="50" height="50" relative="1" as="geometry">
            <mxPoint x="10" y="360" as="sourcePoint" />
            <mxPoint x="10" y="240" as="targetPoint" />
          </mxGeometry>
        </mxCell>
        <mxCell id="jb1K5Bx4n4SNYEQkW07A-35" value="" style="endArrow=none;html=1;entryX=0.5;entryY=1;entryDx=0;entryDy=0;" parent="1" target="jb1K5Bx4n4SNYEQkW07A-29" edge="1">
          <mxGeometry width="50" height="50" relative="1" as="geometry">
            <mxPoint x="175" y="240" as="sourcePoint" />
            <mxPoint x="180" y="230" as="targetPoint" />
            <Array as="points" />
          </mxGeometry>
        </mxCell>
        <mxCell id="jb1K5Bx4n4SNYEQkW07A-36" value="" style="endArrow=none;html=1;" parent="1" edge="1">
          <mxGeometry width="50" height="50" relative="1" as="geometry">
            <mxPoint x="10" y="240" as="sourcePoint" />
            <mxPoint x="50" y="240" as="targetPoint" />
          </mxGeometry>
        </mxCell>
        <mxCell id="jb1K5Bx4n4SNYEQkW07A-38" value="" style="endArrow=none;html=1;exitX=0.25;exitY=0;exitDx=0;exitDy=0;exitPerimeter=0;" parent="1" source="jb1K5Bx4n4SNYEQkW07A-49" edge="1">
          <mxGeometry width="50" height="50" relative="1" as="geometry">
            <mxPoint x="140" y="250" as="sourcePoint" />
            <mxPoint x="140" y="240" as="targetPoint" />
          </mxGeometry>
        </mxCell>
        <mxCell id="jb1K5Bx4n4SNYEQkW07A-39" value="" style="endArrow=none;html=1;" parent="1" edge="1">
          <mxGeometry width="50" height="50" relative="1" as="geometry">
            <mxPoint x="10" y="360" as="sourcePoint" />
            <mxPoint x="40" y="360" as="targetPoint" />
          </mxGeometry>
        </mxCell>
        <mxCell id="jb1K5Bx4n4SNYEQkW07A-40" value="" style="endArrow=none;html=1;" parent="1" edge="1">
          <mxGeometry width="50" height="50" relative="1" as="geometry">
            <mxPoint x="10" y="320" as="sourcePoint" />
            <mxPoint x="40" y="320" as="targetPoint" />
          </mxGeometry>
        </mxCell>
        <mxCell id="jb1K5Bx4n4SNYEQkW07A-41" value="" style="endArrow=none;html=1;" parent="1" edge="1">
          <mxGeometry width="50" height="50" relative="1" as="geometry">
            <mxPoint x="10" y="270" as="sourcePoint" />
            <mxPoint x="40" y="270" as="targetPoint" />
          </mxGeometry>
        </mxCell>
        <mxCell id="jb1K5Bx4n4SNYEQkW07A-42" value="Exploratory" style="rounded=0;whiteSpace=wrap;html=1;gradientColor=#97d077;fillColor=#d5e8d4;strokeColor=#82b366;" parent="1" vertex="1">
          <mxGeometry x="40" y="260" width="70" height="20" as="geometry" />
        </mxCell>
        <mxCell id="jb1K5Bx4n4SNYEQkW07A-43" value="Descriptive" style="rounded=0;whiteSpace=wrap;html=1;" parent="1" vertex="1">
          <mxGeometry x="40" y="310" width="70" height="20" as="geometry" />
        </mxCell>
        <mxCell id="jb1K5Bx4n4SNYEQkW07A-44" value="Explanatory" style="rounded=0;whiteSpace=wrap;html=1;" parent="1" vertex="1">
          <mxGeometry x="40" y="350" width="70" height="20" as="geometry" />
        </mxCell>
        <mxCell id="jb1K5Bx4n4SNYEQkW07A-45" value="" style="endArrow=none;html=1;" parent="1" edge="1">
          <mxGeometry width="50" height="50" relative="1" as="geometry">
            <mxPoint x="140" y="310" as="sourcePoint" />
            <mxPoint x="120" y="310" as="targetPoint" />
          </mxGeometry>
        </mxCell>
        <mxCell id="jb1K5Bx4n4SNYEQkW07A-46" value="" style="endArrow=none;html=1;exitX=0.25;exitY=0;exitDx=0;exitDy=0;" parent="1" edge="1">
          <mxGeometry width="50" height="50" relative="1" as="geometry">
            <mxPoint x="140" y="310" as="sourcePoint" />
            <mxPoint x="140" y="280" as="targetPoint" />
            <Array as="points" />
          </mxGeometry>
        </mxCell>
        <mxCell id="jb1K5Bx4n4SNYEQkW07A-47" value="" style="endArrow=none;html=1;" parent="1" edge="1">
          <mxGeometry width="50" height="50" relative="1" as="geometry">
            <mxPoint x="250" y="260" as="sourcePoint" />
            <mxPoint x="250" y="240" as="targetPoint" />
          </mxGeometry>
        </mxCell>
        <mxCell id="jb1K5Bx4n4SNYEQkW07A-49" value="Theoretical" style="rounded=0;whiteSpace=wrap;html=1;fillColor=#d5e8d4;strokeColor=#82b366;gradientColor=#97d077;" parent="1" vertex="1">
          <mxGeometry x="120" y="260" width="80" height="20" as="geometry" />
        </mxCell>
        <mxCell id="jb1K5Bx4n4SNYEQkW07A-51" value="" style="endArrow=none;html=1;" parent="1" edge="1">
          <mxGeometry width="50" height="50" relative="1" as="geometry">
            <mxPoint x="120" y="410" as="sourcePoint" />
            <mxPoint x="120" y="310" as="targetPoint" />
          </mxGeometry>
        </mxCell>
        <mxCell id="jb1K5Bx4n4SNYEQkW07A-52" value="" style="endArrow=none;html=1;" parent="1" edge="1">
          <mxGeometry width="50" height="50" relative="1" as="geometry">
            <mxPoint x="120" y="410" as="sourcePoint" />
            <mxPoint x="150" y="410" as="targetPoint" />
          </mxGeometry>
        </mxCell>
        <mxCell id="jb1K5Bx4n4SNYEQkW07A-53" value="" style="endArrow=none;html=1;" parent="1" edge="1">
          <mxGeometry width="50" height="50" relative="1" as="geometry">
            <mxPoint x="120" y="385" as="sourcePoint" />
            <mxPoint x="150" y="385" as="targetPoint" />
          </mxGeometry>
        </mxCell>
        <mxCell id="jb1K5Bx4n4SNYEQkW07A-54" value="" style="endArrow=none;html=1;" parent="1" edge="1">
          <mxGeometry width="50" height="50" relative="1" as="geometry">
            <mxPoint x="120" y="340" as="sourcePoint" />
            <mxPoint x="150" y="340" as="targetPoint" />
          </mxGeometry>
        </mxCell>
        <mxCell id="jb1K5Bx4n4SNYEQkW07A-56" value="&lt;p class=&quot;MsoNormal&quot; style=&quot;margin-top: 0.0000pt ; margin-right: 0.0000pt ; margin-bottom: 0.0000pt ; margin-left: 0.0000pt ; text-indent: 0.0000pt ; text-align: left ; line-height: 7.7500pt&quot;&gt;&lt;span style=&quot;letter-spacing: 0.1pt ; font-size: 7.5pt&quot;&gt;Illustrative&lt;/span&gt;&lt;span style=&quot;font-size: 7.5pt&quot;&gt;&lt;/span&gt;&lt;/p&gt;" style="rounded=0;whiteSpace=wrap;html=1;" parent="1" vertex="1">
          <mxGeometry x="150" y="370" width="70" height="20" as="geometry" />
        </mxCell>
        <mxCell id="jb1K5Bx4n4SNYEQkW07A-57" value="&lt;p class=&quot;MsoNormal&quot;&gt;&lt;span style=&quot;font-size: 8pt&quot;&gt;Conceptual&lt;/span&gt;&lt;/p&gt;" style="rounded=0;whiteSpace=wrap;html=1;gradientColor=#97d077;fillColor=#d5e8d4;strokeColor=#82b366;" parent="1" vertex="1">
          <mxGeometry x="150" y="330" width="70" height="20" as="geometry" />
        </mxCell>
        <mxCell id="jb1K5Bx4n4SNYEQkW07A-58" value="Applied&lt;br&gt;Conceptual" style="rounded=0;whiteSpace=wrap;html=1;gradientColor=#97d077;fillColor=#d5e8d4;strokeColor=#82b366;" parent="1" vertex="1">
          <mxGeometry x="150" y="400" width="70" height="30" as="geometry" />
        </mxCell>
        <mxCell id="jb1K5Bx4n4SNYEQkW07A-59" value="&lt;p class=&quot;MsoNormal&quot;&gt;&lt;span style=&quot;letter-spacing: 0.05pt ; font-size: 8.5pt&quot;&gt;Practical&lt;/span&gt;&lt;/p&gt;" style="rounded=0;whiteSpace=wrap;html=1;gradientColor=#97d077;fillColor=#d5e8d4;strokeColor=#82b366;" parent="1" vertex="1">
          <mxGeometry x="220" y="260" width="100" height="20" as="geometry" />
        </mxCell>
        <mxCell id="jb1K5Bx4n4SNYEQkW07A-60" value="&lt;p class=&quot;MsoNormal&quot; style=&quot;margin-top: 0.0000pt ; margin-right: 0.0000pt ; margin-bottom: 0.0000pt ; margin-left: 0.0000pt ; text-indent: 0.0000pt ; text-align: left ; line-height: 8.0000pt&quot;&gt;&lt;span style=&quot;font-size: 8pt&quot;&gt;Case Study&lt;/span&gt;&lt;span style=&quot;font-size: 8pt&quot;&gt;&lt;/span&gt;&lt;/p&gt;" style="rounded=0;whiteSpace=wrap;html=1;" parent="1" vertex="1">
          <mxGeometry x="255" y="300" width="75" height="20" as="geometry" />
        </mxCell>
        <mxCell id="jb1K5Bx4n4SNYEQkW07A-61" value="" style="endArrow=none;html=1;" parent="1" edge="1">
          <mxGeometry width="50" height="50" relative="1" as="geometry">
            <mxPoint x="250" y="430" as="sourcePoint" />
            <mxPoint x="250" y="280" as="targetPoint" />
          </mxGeometry>
        </mxCell>
        <mxCell id="jb1K5Bx4n4SNYEQkW07A-63" value="" style="endArrow=none;html=1;" parent="1" edge="1">
          <mxGeometry width="50" height="50" relative="1" as="geometry">
            <mxPoint x="250" y="370" as="sourcePoint" />
            <mxPoint x="260" y="370" as="targetPoint" />
          </mxGeometry>
        </mxCell>
        <mxCell id="jb1K5Bx4n4SNYEQkW07A-64" value="" style="endArrow=none;html=1;entryX=0;entryY=0.5;entryDx=0;entryDy=0;" parent="1" target="jb1K5Bx4n4SNYEQkW07A-60" edge="1">
          <mxGeometry width="50" height="50" relative="1" as="geometry">
            <mxPoint x="250" y="310" as="sourcePoint" />
            <mxPoint x="300" y="260" as="targetPoint" />
          </mxGeometry>
        </mxCell>
        <mxCell id="jb1K5Bx4n4SNYEQkW07A-65" value="" style="endArrow=none;html=1;" parent="1" edge="1">
          <mxGeometry width="50" height="50" relative="1" as="geometry">
            <mxPoint x="250" y="430" as="sourcePoint" />
            <mxPoint x="255" y="430" as="targetPoint" />
          </mxGeometry>
        </mxCell>
        <mxCell id="jb1K5Bx4n4SNYEQkW07A-66" value="&lt;p class=&quot;MsoNormal&quot;&gt;&lt;span style=&quot;font-size: 8pt&quot;&gt;Experimental&lt;/span&gt;&lt;/p&gt;" style="rounded=0;whiteSpace=wrap;html=1;gradientColor=#97d077;fillColor=#d5e8d4;strokeColor=#82b366;" parent="1" vertex="1">
          <mxGeometry x="255" y="420" width="85" height="20" as="geometry" />
        </mxCell>
        <mxCell id="jb1K5Bx4n4SNYEQkW07A-67" value="Survey" style="rounded=0;whiteSpace=wrap;html=1;" parent="1" vertex="1">
          <mxGeometry x="260" y="360" width="80" height="20" as="geometry" />
        </mxCell>
        <mxCell id="jb1K5Bx4n4SNYEQkW07A-69" value="" style="endArrow=none;html=1;" parent="1" edge="1">
          <mxGeometry width="50" height="50" relative="1" as="geometry">
            <mxPoint x="420" y="210" as="sourcePoint" />
            <mxPoint x="420" y="190" as="targetPoint" />
          </mxGeometry>
        </mxCell>
        <mxCell id="jb1K5Bx4n4SNYEQkW07A-70" value="" style="endArrow=none;html=1;" parent="1" edge="1">
          <mxGeometry width="50" height="50" relative="1" as="geometry">
            <mxPoint x="320" y="250" as="sourcePoint" />
            <mxPoint x="420" y="250" as="targetPoint" />
          </mxGeometry>
        </mxCell>
        <mxCell id="jb1K5Bx4n4SNYEQkW07A-71" value="" style="endArrow=none;html=1;" parent="1" edge="1">
          <mxGeometry width="50" height="50" relative="1" as="geometry">
            <mxPoint x="320" y="250" as="sourcePoint" />
            <mxPoint x="320" y="190" as="targetPoint" />
          </mxGeometry>
        </mxCell>
        <mxCell id="jb1K5Bx4n4SNYEQkW07A-72" value="" style="endArrow=none;html=1;" parent="1" edge="1">
          <mxGeometry width="50" height="50" relative="1" as="geometry">
            <mxPoint x="320" y="190" as="sourcePoint" />
            <mxPoint x="420" y="190" as="targetPoint" />
          </mxGeometry>
        </mxCell>
        <mxCell id="jb1K5Bx4n4SNYEQkW07A-73" value="&lt;p class=&quot;MsoNormal&quot;&gt;&lt;span style=&quot;letter-spacing: 0.05pt ; font-size: 9.5pt&quot;&gt;Deductive&lt;/span&gt;&lt;/p&gt;" style="rounded=0;whiteSpace=wrap;html=1;gradientColor=#97d077;fillColor=#d5e8d4;strokeColor=#82b366;" parent="1" vertex="1">
          <mxGeometry x="370" y="210" width="100" height="30" as="geometry" />
        </mxCell>
        <mxCell id="jb1K5Bx4n4SNYEQkW07A-74" value="" style="endArrow=none;html=1;" parent="1" edge="1">
          <mxGeometry width="50" height="50" relative="1" as="geometry">
            <mxPoint x="420" y="280" as="sourcePoint" />
            <mxPoint x="420" y="250" as="targetPoint" />
          </mxGeometry>
        </mxCell>
        <mxCell id="jb1K5Bx4n4SNYEQkW07A-75" value="&lt;p class=&quot;MsoNormal&quot;&gt;&lt;span style=&quot;letter-spacing: -0.1pt ; font-size: 9pt&quot;&gt;Inductive&lt;/span&gt;&lt;/p&gt;" style="rounded=0;whiteSpace=wrap;html=1;" parent="1" vertex="1">
          <mxGeometry x="370" y="280" width="100" height="30" as="geometry" />
        </mxCell>
        <mxCell id="jb1K5Bx4n4SNYEQkW07A-76" value="" style="endArrow=none;html=1;" parent="1" edge="1">
          <mxGeometry width="50" height="50" relative="1" as="geometry">
            <mxPoint x="690" y="200" as="sourcePoint" />
            <mxPoint x="690" y="190" as="targetPoint" />
          </mxGeometry>
        </mxCell>
        <mxCell id="jb1K5Bx4n4SNYEQkW07A-77" value="" style="endArrow=none;html=1;" parent="1" edge="1">
          <mxGeometry width="50" height="50" relative="1" as="geometry">
            <mxPoint x="530" y="200" as="sourcePoint" />
            <mxPoint x="530" y="190" as="targetPoint" />
          </mxGeometry>
        </mxCell>
        <mxCell id="jb1K5Bx4n4SNYEQkW07A-78" value="" style="endArrow=none;html=1;" parent="1" edge="1">
          <mxGeometry width="50" height="50" relative="1" as="geometry">
            <mxPoint x="530" y="190" as="sourcePoint" />
            <mxPoint x="690" y="190" as="targetPoint" />
          </mxGeometry>
        </mxCell>
        <mxCell id="jb1K5Bx4n4SNYEQkW07A-79" value="Problematics&lt;br&gt;Approach" style="rounded=0;whiteSpace=wrap;html=1;" parent="1" vertex="1">
          <mxGeometry x="640" y="200" width="100" height="30" as="geometry" />
        </mxCell>
        <mxCell id="jb1K5Bx4n4SNYEQkW07A-81" value="Data&lt;br&gt;Gathering" style="rounded=0;whiteSpace=wrap;html=1;" parent="1" vertex="1">
          <mxGeometry x="480" y="200" width="100" height="30" as="geometry" />
        </mxCell>
        <mxCell id="jb1K5Bx4n4SNYEQkW07A-82" value="" style="endArrow=none;html=1;" parent="1" edge="1">
          <mxGeometry width="50" height="50" relative="1" as="geometry">
            <mxPoint x="480" y="280" as="sourcePoint" />
            <mxPoint x="500" y="280" as="targetPoint" />
          </mxGeometry>
        </mxCell>
        <mxCell id="jb1K5Bx4n4SNYEQkW07A-83" value="" style="endArrow=none;html=1;" parent="1" edge="1">
          <mxGeometry width="50" height="50" relative="1" as="geometry">
            <mxPoint x="480" y="370" as="sourcePoint" />
            <mxPoint x="480" y="240" as="targetPoint" />
          </mxGeometry>
        </mxCell>
        <mxCell id="jb1K5Bx4n4SNYEQkW07A-84" value="" style="endArrow=none;html=1;" parent="1" edge="1">
          <mxGeometry width="50" height="50" relative="1" as="geometry">
            <mxPoint x="480" y="240" as="sourcePoint" />
            <mxPoint x="530" y="240" as="targetPoint" />
          </mxGeometry>
        </mxCell>
        <mxCell id="jb1K5Bx4n4SNYEQkW07A-85" value="" style="endArrow=none;html=1;" parent="1" edge="1">
          <mxGeometry width="50" height="50" relative="1" as="geometry">
            <mxPoint x="530" y="240" as="sourcePoint" />
            <mxPoint x="530" y="230" as="targetPoint" />
          </mxGeometry>
        </mxCell>
        <mxCell id="jb1K5Bx4n4SNYEQkW07A-87" value="" style="endArrow=none;html=1;" parent="1" edge="1">
          <mxGeometry width="50" height="50" relative="1" as="geometry">
            <mxPoint x="480" y="370" as="sourcePoint" />
            <mxPoint x="500" y="370" as="targetPoint" />
          </mxGeometry>
        </mxCell>
        <mxCell id="jb1K5Bx4n4SNYEQkW07A-88" value="" style="endArrow=none;html=1;" parent="1" edge="1">
          <mxGeometry width="50" height="50" relative="1" as="geometry">
            <mxPoint x="480" y="320" as="sourcePoint" />
            <mxPoint x="500" y="320" as="targetPoint" />
          </mxGeometry>
        </mxCell>
        <mxCell id="jb1K5Bx4n4SNYEQkW07A-89" value="Both" style="rounded=0;whiteSpace=wrap;html=1;" parent="1" vertex="1">
          <mxGeometry x="500" y="350" width="90" height="30" as="geometry" />
        </mxCell>
        <mxCell id="jb1K5Bx4n4SNYEQkW07A-90" value="Secondary&lt;br&gt;Data" style="rounded=0;whiteSpace=wrap;html=1;" parent="1" vertex="1">
          <mxGeometry x="500" y="305" width="90" height="30" as="geometry" />
        </mxCell>
        <mxCell id="jb1K5Bx4n4SNYEQkW07A-91" value="Primary Data" style="rounded=0;whiteSpace=wrap;html=1;gradientColor=#97d077;fillColor=#d5e8d4;strokeColor=#82b366;" parent="1" vertex="1">
          <mxGeometry x="500" y="260" width="90" height="30" as="geometry" />
        </mxCell>
        <mxCell id="jb1K5Bx4n4SNYEQkW07A-92" value="" style="endArrow=none;html=1;" parent="1" edge="1">
          <mxGeometry width="50" height="50" relative="1" as="geometry">
            <mxPoint x="640" y="370" as="sourcePoint" />
            <mxPoint x="640" y="240" as="targetPoint" />
          </mxGeometry>
        </mxCell>
        <mxCell id="jb1K5Bx4n4SNYEQkW07A-93" value="" style="endArrow=none;html=1;" parent="1" edge="1">
          <mxGeometry width="50" height="50" relative="1" as="geometry">
            <mxPoint x="640" y="240" as="sourcePoint" />
            <mxPoint x="690" y="240" as="targetPoint" />
          </mxGeometry>
        </mxCell>
        <mxCell id="jb1K5Bx4n4SNYEQkW07A-94" value="" style="endArrow=none;html=1;" parent="1" edge="1">
          <mxGeometry width="50" height="50" relative="1" as="geometry">
            <mxPoint x="690" y="240" as="sourcePoint" />
            <mxPoint x="690" y="230" as="targetPoint" />
          </mxGeometry>
        </mxCell>
        <mxCell id="jb1K5Bx4n4SNYEQkW07A-95" value="" style="endArrow=none;html=1;" parent="1" edge="1">
          <mxGeometry width="50" height="50" relative="1" as="geometry">
            <mxPoint x="640" y="370" as="sourcePoint" />
            <mxPoint x="660" y="370" as="targetPoint" />
          </mxGeometry>
        </mxCell>
        <mxCell id="jb1K5Bx4n4SNYEQkW07A-96" value="" style="endArrow=none;html=1;" parent="1" edge="1">
          <mxGeometry width="50" height="50" relative="1" as="geometry">
            <mxPoint x="640" y="320" as="sourcePoint" />
            <mxPoint x="660" y="320" as="targetPoint" />
          </mxGeometry>
        </mxCell>
        <mxCell id="jb1K5Bx4n4SNYEQkW07A-97" value="" style="endArrow=none;html=1;" parent="1" edge="1">
          <mxGeometry width="50" height="50" relative="1" as="geometry">
            <mxPoint x="640" y="270" as="sourcePoint" />
            <mxPoint x="660" y="270" as="targetPoint" />
          </mxGeometry>
        </mxCell>
        <mxCell id="jb1K5Bx4n4SNYEQkW07A-98" value="&lt;p class=&quot;MsoNormal&quot;&gt;&lt;span style=&quot;font-size: 10.6667px&quot;&gt;Quantitative&lt;/span&gt;&lt;br&gt;&lt;/p&gt;" style="rounded=0;whiteSpace=wrap;html=1;" parent="1" vertex="1">
          <mxGeometry x="660" y="260" width="80" height="30" as="geometry" />
        </mxCell>
        <mxCell id="jb1K5Bx4n4SNYEQkW07A-99" value="Qualitative-&lt;br&gt;Quantitative" style="rounded=0;whiteSpace=wrap;html=1;" parent="1" vertex="1">
          <mxGeometry x="660" y="360" width="80" height="30" as="geometry" />
        </mxCell>
        <mxCell id="jb1K5Bx4n4SNYEQkW07A-101" value="&lt;p class=&quot;MsoNormal&quot;&gt;Qualitative&lt;/p&gt;" style="rounded=0;whiteSpace=wrap;html=1;gradientColor=#97d077;fillColor=#d5e8d4;strokeColor=#82b366;" parent="1" vertex="1">
          <mxGeometry x="660" y="305" width="80" height="25" as="geometry" />
        </mxCell>
        <mxCell id="jb1K5Bx4n4SNYEQkW07A-102" value="" style="endArrow=none;html=1;" parent="1" edge="1">
          <mxGeometry width="50" height="50" relative="1" as="geometry">
            <mxPoint x="760" y="290" as="sourcePoint" />
            <mxPoint x="760" y="190" as="targetPoint" />
          </mxGeometry>
        </mxCell>
        <mxCell id="jb1K5Bx4n4SNYEQkW07A-105" value="" style="endArrow=none;html=1;" parent="1" edge="1">
          <mxGeometry width="50" height="50" relative="1" as="geometry">
            <mxPoint x="760" y="290" as="sourcePoint" />
            <mxPoint x="780" y="290" as="targetPoint" />
          </mxGeometry>
        </mxCell>
        <mxCell id="jb1K5Bx4n4SNYEQkW07A-106" value="" style="endArrow=none;html=1;" parent="1" edge="1">
          <mxGeometry width="50" height="50" relative="1" as="geometry">
            <mxPoint x="760" y="240" as="sourcePoint" />
            <mxPoint x="780" y="240" as="targetPoint" />
          </mxGeometry>
        </mxCell>
        <mxCell id="jb1K5Bx4n4SNYEQkW07A-107" value="&lt;p class=&quot;MsoNormal&quot;&gt;&lt;span style=&quot;letter-spacing: -0.1pt ; font-size: 9pt&quot;&gt;Basic&lt;/span&gt;&lt;/p&gt;" style="rounded=0;whiteSpace=wrap;html=1;" parent="1" vertex="1">
          <mxGeometry x="780" y="275" width="80" height="25" as="geometry" />
        </mxCell>
        <mxCell id="jb1K5Bx4n4SNYEQkW07A-108" value="&lt;p class=&quot;MsoNormal&quot;&gt;&lt;span style=&quot;letter-spacing: -0.1pt ; font-size: 9pt&quot;&gt;Applied&lt;/span&gt;&lt;/p&gt;" style="rounded=0;whiteSpace=wrap;html=1;gradientColor=#97d077;fillColor=#d5e8d4;strokeColor=#82b366;" parent="1" vertex="1">
          <mxGeometry x="780" y="230" width="80" height="30" as="geometry" />
        </mxCell>
        <mxCell id="jb1K5Bx4n4SNYEQkW07A-109" value="" style="endArrow=none;html=1;" parent="1" edge="1">
          <mxGeometry width="50" height="50" relative="1" as="geometry">
            <mxPoint x="900" y="190" as="sourcePoint" />
            <mxPoint x="920" y="190" as="targetPoint" />
          </mxGeometry>
        </mxCell>
        <mxCell id="jb1K5Bx4n4SNYEQkW07A-110" value="" style="endArrow=none;html=1;" parent="1" edge="1">
          <mxGeometry width="50" height="50" relative="1" as="geometry">
            <mxPoint x="900" y="635" as="sourcePoint" />
            <mxPoint x="900" y="190" as="targetPoint" />
          </mxGeometry>
        </mxCell>
        <mxCell id="jb1K5Bx4n4SNYEQkW07A-114" value="" style="endArrow=none;html=1;" parent="1" edge="1">
          <mxGeometry width="50" height="50" relative="1" as="geometry">
            <mxPoint x="900" y="379" as="sourcePoint" />
            <mxPoint x="920" y="379" as="targetPoint" />
          </mxGeometry>
        </mxCell>
        <mxCell id="jb1K5Bx4n4SNYEQkW07A-115" value="" style="endArrow=none;html=1;" parent="1" edge="1">
          <mxGeometry width="50" height="50" relative="1" as="geometry">
            <mxPoint x="900" y="317" as="sourcePoint" />
            <mxPoint x="920" y="317" as="targetPoint" />
          </mxGeometry>
        </mxCell>
        <mxCell id="jb1K5Bx4n4SNYEQkW07A-116" value="" style="endArrow=none;html=1;" parent="1" edge="1">
          <mxGeometry width="50" height="50" relative="1" as="geometry">
            <mxPoint x="900" y="254.5" as="sourcePoint" />
            <mxPoint x="920" y="254.5" as="targetPoint" />
          </mxGeometry>
        </mxCell>
        <mxCell id="jb1K5Bx4n4SNYEQkW07A-117" value="" style="endArrow=none;html=1;" parent="1" edge="1">
          <mxGeometry width="50" height="50" relative="1" as="geometry">
            <mxPoint x="900" y="584.5" as="sourcePoint" />
            <mxPoint x="920" y="584.5" as="targetPoint" />
          </mxGeometry>
        </mxCell>
        <mxCell id="jb1K5Bx4n4SNYEQkW07A-118" value="" style="endArrow=none;html=1;" parent="1" edge="1">
          <mxGeometry width="50" height="50" relative="1" as="geometry">
            <mxPoint x="900" y="634.5" as="sourcePoint" />
            <mxPoint x="920" y="634.5" as="targetPoint" />
          </mxGeometry>
        </mxCell>
        <mxCell id="jb1K5Bx4n4SNYEQkW07A-119" value="" style="endArrow=none;html=1;" parent="1" edge="1">
          <mxGeometry width="50" height="50" relative="1" as="geometry">
            <mxPoint x="900" y="539" as="sourcePoint" />
            <mxPoint x="920" y="539" as="targetPoint" />
          </mxGeometry>
        </mxCell>
        <mxCell id="jb1K5Bx4n4SNYEQkW07A-120" value="" style="endArrow=none;html=1;" parent="1" edge="1">
          <mxGeometry width="50" height="50" relative="1" as="geometry">
            <mxPoint x="900" y="484.5" as="sourcePoint" />
            <mxPoint x="920" y="484.5" as="targetPoint" />
          </mxGeometry>
        </mxCell>
        <mxCell id="jb1K5Bx4n4SNYEQkW07A-121" value="" style="endArrow=none;html=1;" parent="1" edge="1">
          <mxGeometry width="50" height="50" relative="1" as="geometry">
            <mxPoint x="900" y="440" as="sourcePoint" />
            <mxPoint x="920" y="440" as="targetPoint" />
          </mxGeometry>
        </mxCell>
        <mxCell id="jb1K5Bx4n4SNYEQkW07A-122" value="Participatory&lt;br&gt;Research" style="rounded=0;whiteSpace=wrap;html=1;" parent="1" vertex="1">
          <mxGeometry x="920" y="620" width="100" height="30" as="geometry" />
        </mxCell>
        <mxCell id="jb1K5Bx4n4SNYEQkW07A-123" value="Action Research" style="rounded=0;whiteSpace=wrap;html=1;" parent="1" vertex="1">
          <mxGeometry x="920" y="570" width="100" height="30" as="geometry" />
        </mxCell>
        <mxCell id="jb1K5Bx4n4SNYEQkW07A-124" value="Expost-facto" style="rounded=0;whiteSpace=wrap;html=1;" parent="1" vertex="1">
          <mxGeometry x="920" y="520" width="100" height="30" as="geometry" />
        </mxCell>
        <mxCell id="jb1K5Bx4n4SNYEQkW07A-125" value="Case Study" style="rounded=0;whiteSpace=wrap;html=1;" parent="1" vertex="1">
          <mxGeometry x="920" y="470" width="100" height="30" as="geometry" />
        </mxCell>
        <mxCell id="jb1K5Bx4n4SNYEQkW07A-126" value="&lt;p class=&quot;MsoNormal&quot;&gt;&lt;span style=&quot;letter-spacing: -0.05pt ; font-size: 10.5pt&quot;&gt;Survey&lt;/span&gt;&lt;/p&gt;" style="rounded=0;whiteSpace=wrap;html=1;" parent="1" vertex="1">
          <mxGeometry x="920" y="420" width="100" height="30" as="geometry" />
        </mxCell>
        <mxCell id="jb1K5Bx4n4SNYEQkW07A-128" value="&lt;p class=&quot;MsoNormal&quot; style=&quot;margin: 0pt; text-indent: 0pt; line-height: 9.6pt;&quot;&gt;&lt;span style=&quot;letter-spacing: 0.1pt ; font-size: 7pt&quot;&gt;Documental&lt;/span&gt;&lt;/p&gt;&lt;p class=&quot;MsoNormal&quot; style=&quot;margin: 0pt; text-indent: 0pt; line-height: 9.6pt;&quot;&gt;&lt;span style=&quot;letter-spacing: 0.05pt ; font-size: 9.5pt&quot;&gt;Research&lt;/span&gt;&lt;span style=&quot;font-size: 9.5pt&quot;&gt;&lt;/span&gt;&lt;/p&gt;" style="rounded=0;whiteSpace=wrap;html=1;align=center;" parent="1" vertex="1">
          <mxGeometry x="920" y="300" width="100" height="30" as="geometry" />
        </mxCell>
        <mxCell id="jb1K5Bx4n4SNYEQkW07A-129" value="&lt;p class=&quot;MsoNormal&quot; style=&quot;margin: 0pt; text-indent: 0pt; line-height: 8.95pt;&quot;&gt;&lt;span style=&quot;font-size: 9pt&quot;&gt;Bibliographical&lt;/span&gt;&lt;/p&gt;&lt;p class=&quot;MsoNormal&quot; style=&quot;margin: 0pt; text-indent: 0pt; line-height: 8.95pt;&quot;&gt;&lt;span style=&quot;letter-spacing: -0.1pt ; font-size: 9pt&quot;&gt;Research&lt;/span&gt;&lt;span style=&quot;font-size: 9pt&quot;&gt;&lt;/span&gt;&lt;/p&gt;" style="rounded=0;whiteSpace=wrap;html=1;align=center;gradientColor=#97d077;fillColor=#d5e8d4;strokeColor=#82b366;" parent="1" vertex="1">
          <mxGeometry x="920" y="240" width="100" height="30" as="geometry" />
        </mxCell>
        <mxCell id="jb1K5Bx4n4SNYEQkW07A-130" value="Experimental&lt;br&gt;Research" style="rounded=0;whiteSpace=wrap;html=1;align=center;gradientColor=#97d077;fillColor=#d5e8d4;strokeColor=#82b366;" parent="1" vertex="1">
          <mxGeometry x="920" y="360" width="100" height="30" as="geometry" />
        </mxCell>
        <mxCell id="jb1K5Bx4n4SNYEQkW07A-131" value="" style="endArrow=none;html=1;" parent="1" edge="1">
          <mxGeometry width="50" height="50" relative="1" as="geometry">
            <mxPoint x="1070" y="370" as="sourcePoint" />
            <mxPoint x="1070" y="190" as="targetPoint" />
          </mxGeometry>
        </mxCell>
        <mxCell id="jb1K5Bx4n4SNYEQkW07A-132" value="" style="endArrow=none;html=1;" parent="1" edge="1">
          <mxGeometry width="50" height="50" relative="1" as="geometry">
            <mxPoint x="1070" y="190" as="sourcePoint" />
            <mxPoint x="1120" y="190" as="targetPoint" />
          </mxGeometry>
        </mxCell>
        <mxCell id="jb1K5Bx4n4SNYEQkW07A-133" value="" style="endArrow=none;html=1;" parent="1" target="jb1K5Bx4n4SNYEQkW07A-137" edge="1">
          <mxGeometry width="50" height="50" relative="1" as="geometry">
            <mxPoint x="1070" y="370" as="sourcePoint" />
            <mxPoint x="1100" y="370" as="targetPoint" />
          </mxGeometry>
        </mxCell>
        <mxCell id="jb1K5Bx4n4SNYEQkW07A-134" value="" style="endArrow=none;html=1;" parent="1" edge="1">
          <mxGeometry width="50" height="50" relative="1" as="geometry">
            <mxPoint x="1070" y="335" as="sourcePoint" />
            <mxPoint x="1100" y="335" as="targetPoint" />
          </mxGeometry>
        </mxCell>
        <mxCell id="jb1K5Bx4n4SNYEQkW07A-135" value="" style="endArrow=none;html=1;" parent="1" edge="1">
          <mxGeometry width="50" height="50" relative="1" as="geometry">
            <mxPoint x="1070" y="280" as="sourcePoint" />
            <mxPoint x="1100" y="280" as="targetPoint" />
          </mxGeometry>
        </mxCell>
        <mxCell id="jb1K5Bx4n4SNYEQkW07A-136" value="" style="endArrow=none;html=1;" parent="1" edge="1">
          <mxGeometry width="50" height="50" relative="1" as="geometry">
            <mxPoint x="1070" y="230" as="sourcePoint" />
            <mxPoint x="1100" y="230" as="targetPoint" />
          </mxGeometry>
        </mxCell>
        <mxCell id="jb1K5Bx4n4SNYEQkW07A-137" value="Ding Talk" style="rounded=0;whiteSpace=wrap;html=1;" parent="1" vertex="1">
          <mxGeometry x="1100" y="360" width="70" height="20" as="geometry" />
        </mxCell>
        <mxCell id="jb1K5Bx4n4SNYEQkW07A-138" value="Skype" style="rounded=0;whiteSpace=wrap;html=1;align=center;gradientColor=#97d077;fillColor=#d5e8d4;strokeColor=#82b366;" parent="1" vertex="1">
          <mxGeometry x="1100" y="220" width="70" height="20" as="geometry" />
        </mxCell>
        <mxCell id="jb1K5Bx4n4SNYEQkW07A-139" value="Zoom" style="rounded=0;whiteSpace=wrap;html=1;align=center;" parent="1" vertex="1">
          <mxGeometry x="1100" y="270" width="70" height="30" as="geometry" />
        </mxCell>
        <mxCell id="jb1K5Bx4n4SNYEQkW07A-140" value="Wechat" style="rounded=0;whiteSpace=wrap;html=1;align=center;gradientColor=#97d077;fillColor=#d5e8d4;strokeColor=#82b366;" parent="1" vertex="1">
          <mxGeometry x="1100" y="320" width="70" height="30" as="geometry" />
        </mxCell>
        <mxCell id="jb1K5Bx4n4SNYEQkW07A-145" value="X" style="rounded=0;whiteSpace=wrap;html=1;align=center;fillColor=#d5e8d4;strokeColor=#82b366;gradientColor=#97d077;" parent="1" vertex="1">
          <mxGeometry x="60" y="660" width="110" height="40" as="geometry" />
        </mxCell>
        <mxCell id="jb1K5Bx4n4SNYEQkW07A-146" value="Methodological framework adopted" style="rounded=0;whiteSpace=wrap;html=1;align=center;" parent="1" vertex="1">
          <mxGeometry x="180" y="665" width="270" height="30" as="geometry" />
        </mxCell>
        <mxCell id="jb1K5Bx4n4SNYEQkW07A-148" value="" style="endArrow=none;html=1;" parent="1" edge="1">
          <mxGeometry width="50" height="50" relative="1" as="geometry">
            <mxPoint x="760" y="320" as="sourcePoint" />
            <mxPoint x="740" y="320" as="targetPoint" />
          </mxGeometry>
        </mxCell>
        <mxCell id="jb1K5Bx4n4SNYEQkW07A-149" value="" style="endArrow=none;html=1;" parent="1" edge="1">
          <mxGeometry width="50" height="50" relative="1" as="geometry">
            <mxPoint x="760" y="560" as="sourcePoint" />
            <mxPoint x="760" y="320" as="targetPoint" />
          </mxGeometry>
        </mxCell>
        <mxCell id="jb1K5Bx4n4SNYEQkW07A-155" value="" style="endArrow=none;html=1;" parent="1" edge="1">
          <mxGeometry width="50" height="50" relative="1" as="geometry">
            <mxPoint x="760" y="480.5" as="sourcePoint" />
            <mxPoint x="780" y="480" as="targetPoint" />
          </mxGeometry>
        </mxCell>
        <mxCell id="jb1K5Bx4n4SNYEQkW07A-157" value="" style="endArrow=none;html=1;" parent="1" edge="1">
          <mxGeometry width="50" height="50" relative="1" as="geometry">
            <mxPoint x="760" y="560" as="sourcePoint" />
            <mxPoint x="780" y="560" as="targetPoint" />
          </mxGeometry>
        </mxCell>
        <mxCell id="jb1K5Bx4n4SNYEQkW07A-159" value="" style="endArrow=none;html=1;" parent="1" edge="1">
          <mxGeometry width="50" height="50" relative="1" as="geometry">
            <mxPoint x="760" y="400" as="sourcePoint" />
            <mxPoint x="780" y="400" as="targetPoint" />
          </mxGeometry>
        </mxCell>
        <mxCell id="jb1K5Bx4n4SNYEQkW07A-160" value="Structured Interview" style="rounded=0;whiteSpace=wrap;html=1;align=center;" parent="1" vertex="1">
          <mxGeometry x="775" y="380" width="90" height="40" as="geometry" />
        </mxCell>
        <mxCell id="jb1K5Bx4n4SNYEQkW07A-161" value="Semistructured Interview" style="rounded=0;whiteSpace=wrap;html=1;align=center;gradientColor=#97d077;fillColor=#d5e8d4;strokeColor=#82b366;" parent="1" vertex="1">
          <mxGeometry x="775" y="460" width="90" height="40" as="geometry" />
        </mxCell>
        <mxCell id="jb1K5Bx4n4SNYEQkW07A-162" value="Unstructured Interview" style="rounded=0;whiteSpace=wrap;html=1;align=center;" parent="1" vertex="1">
          <mxGeometry x="775" y="540" width="90" height="40" as="geometry" />
        </mxCell>
        <mxCell id="nxQ9AMubtp3KNoBXWzT4-1" value="" style="endArrow=none;html=1;" edge="1" parent="1">
          <mxGeometry width="50" height="50" relative="1" as="geometry">
            <mxPoint x="1070" y="400" as="sourcePoint" />
            <mxPoint x="1070" y="370" as="targetPoint" />
          </mxGeometry>
        </mxCell>
        <mxCell id="nxQ9AMubtp3KNoBXWzT4-2" value="" style="endArrow=none;html=1;" edge="1" parent="1">
          <mxGeometry width="50" height="50" relative="1" as="geometry">
            <mxPoint x="1070" y="400" as="sourcePoint" />
            <mxPoint x="1100" y="400" as="targetPoint" />
          </mxGeometry>
        </mxCell>
        <mxCell id="nxQ9AMubtp3KNoBXWzT4-3" value="Email" style="rounded=0;whiteSpace=wrap;html=1;gradientColor=#97d077;fillColor=#d5e8d4;strokeColor=#82b366;" vertex="1" parent="1">
          <mxGeometry x="1100" y="390" width="70" height="20" as="geometry" />
        </mxCell>
      </root>
    </mxGraphModel>
  </diagram>
</mxfile>
